<svg width="22" height="22" viewBox="0 0 22 22" fill="none" xmlns="http://www.w3.org/2000/svg">
<g id="search-light">
<path id="Vector" fill-rule="evenodd" clip-rule="evenodd" d="M9.16666 0.916656C4.61031 0.916656 0.916664 4.61031 0.916664 9.16666C0.916664 13.723 4.61031 17.4167 9.16666 17.4167C11.1146 17.4167 12.9048 16.7416 14.3162 15.6126L18.6018 19.8982C18.9598 20.2562 19.5402 20.2562 19.8982 19.8982C20.2562 19.5402 20.2562 18.9598 19.8982 18.6018L15.6126 14.3162C16.7416 12.9048 17.4167 11.1146 17.4167 9.16666C17.4167 4.61031 13.723 0.916656 9.16666 0.916656ZM2.75 9.16666C2.75 5.62283 5.62284 2.74999 9.16666 2.74999C12.7105 2.74999 15.5833 5.62283 15.5833 9.16666C15.5833 12.7105 12.7105 15.5833 9.16666 15.5833C5.62284 15.5833 2.75 12.7105 2.75 9.16666Z" fill="#FFA23D" stroke="#FFA23D" stroke-width="0.6" stroke-linecap="round" stroke-linejoin="round"/>
</g>
</svg>
